<svg viewBox="0 0 1024 1024" xmlns="http://www.w3.org/2000/svg" fill="currentColor"><path d="m222.927 580.115 301.354 328.512c24.354 28.708 20.825 71.724-7.883 96.078s-71.724 20.825-96.078-7.883L19.576 559.963a67.9 67.9 0 0 1-13.784-20.022 68 68 0 0 1-5.977-29.488l.001-.063a68.34 68.34 0 0 1 7.265-29.134 68 68 0 0 1 1.384-2.6 67.6 67.6 0 0 1 10.102-13.687L429.966 21.113c25.592-27.611 68.721-29.247 96.331-3.656s29.247 68.721 3.656 96.331L224.088 443.784h730.46c37.647 0 68.166 30.519 68.166 68.166s-30.519 68.166-68.166 68.166z"/></svg>